<svg width="64" height="64" viewBox="0 0 64 64" fill="none" xmlns="http://www.w3.org/2000/svg">
<path fill-rule="evenodd" clip-rule="evenodd" d="M54.8147 28.8313C54.1698 29.1028 53.5019 29.3304 52.8147 29.5106V43.7466C52.8147 44.8512 51.9193 45.7466 50.8147 45.7466H34.9568C33.8522 45.7466 32.9568 44.8512 32.9568 43.7466V27.8887C32.9568 26.7841 33.8522 25.8887 34.9568 25.8887H38.6832C38.037 25.2762 37.4453 24.6069 36.9161 23.8887H34.9568C32.7476 23.8887 30.9568 25.6795 30.9568 27.8887V31.1743H28.3147V33.1743H30.9568V38.4604H28.3147V40.4604H30.9568V43.7466C30.9568 45.9557 32.7477 47.7466 34.9568 47.7466H38.2439V50.3896H40.2439V47.7466H45.5291V50.3896H47.5291V47.7466H50.8147C53.0239 47.7466 54.8147 45.9557 54.8147 43.7466V40.4604H57.4587V38.4604H54.8147V33.1743H57.4587V31.1743H54.8147V28.8313ZM37.1633 30.0947H48.6097V41.5411H37.1633V30.0947ZM39.1633 32.0947V39.5411H46.6097V32.0947H39.1633Z" fill="white"/>
<circle cx="49" cy="15" r="12.5" fill="#FF4438"/>
<path d="M54.5366 15.2155C53.6179 16.3224 52.6257 17.5874 50.6413 17.5874C48.8688 17.5874 48.2084 16.0924 48.162 14.878C48.5503 15.6632 49.3096 16.2991 50.4943 16.2697C52.7727 16.1994 54.3344 14.2316 54.3344 12.4396C54.3344 10.2961 52.6624 8.75 49.7593 8.75C47.6831 8.75 45.1107 9.50548 43.4203 10.7002C43.4019 11.9301 44.1185 13.5289 44.3757 13.3532C45.8412 12.3456 47.0033 11.6971 48.1304 11.3719C46.4619 13.1509 42.4589 17.2818 41.9688 18.009C42.0239 18.6767 42.8874 20.4687 43.3101 20.4687C43.4387 20.4687 43.5489 20.3985 43.6775 20.2755C44.8844 18.9789 45.8682 17.8164 46.7432 16.6959C46.8661 18.3381 47.7106 20.3458 50.0717 20.3458C52.1847 20.3458 54.2793 18.8875 55.2348 15.602C55.345 15.1979 54.8305 14.8817 54.5366 15.2155ZM52.1296 12.5625C52.1296 13.5991 51.0639 14.1086 50.0901 14.1086C49.5695 14.1086 49.1696 13.9779 48.8534 13.8081C49.4353 12.9656 50.0113 12.1017 50.6301 11.1769C51.7212 11.3535 52.1296 11.9335 52.1296 12.5625Z" fill="white"/>
<path d="M19.3855 43.4461C18.8418 41.4349 16.7654 40.2431 14.7529 40.7872L14.231 38.8565C16.2902 38.2998 18.3932 38.9309 19.8089 40.3317C20.3929 39.7744 20.6262 38.9046 20.3333 38.1005L22.2126 37.4161C22.8224 39.0906 22.2684 40.9031 20.9689 41.9751C21.1097 42.2755 21.2264 42.5922 21.316 42.9234C21.6638 44.2059 21.55 45.5136 21.0701 46.6533L19.2269 45.8772C19.5384 45.1374 19.6135 44.2868 19.3857 43.4469L19.3855 43.4461Z" fill="white"/>
<path d="M19.6377 26.2527C20.1817 28.2652 18.9899 30.3416 16.9787 30.8853L16.9779 30.8855C16.1381 31.1132 15.2874 31.0381 14.5476 30.7266L13.7715 32.5699C14.9112 33.0498 16.2189 33.1635 17.5014 32.8158C20.5797 31.9832 22.4002 28.808 21.5684 25.7307L19.6377 26.2527Z" fill="white"/>
<path fill-rule="evenodd" clip-rule="evenodd" d="M13.2283 19.6874C14.4741 16.9248 17.2585 15 20.5039 15C24.9026 15 28.4824 18.5424 28.4824 22.9264V46.708L28.4362 48.8247L28.4311 48.8698C27.983 52.8375 24.6021 55.9119 20.5039 55.9119C17.0627 55.9119 14.1398 53.7458 13.0201 50.7117C8.03455 50.6415 4 46.6042 4 41.6214C4 39.7949 4.54967 38.0981 5.48228 36.6769C4.53869 35.0064 4 33.0779 4 31.0265C4 25.4519 7.95801 20.8054 13.2283 19.6874ZM15.2286 20.1498L15.2403 20.1565C14.2847 21.8062 14.8467 23.9189 16.495 24.8737L15.4925 26.6043C13.7441 25.5916 12.7701 23.7558 12.7743 21.8708C8.84283 23.0947 6 26.736 6 31.0265C6 32.9254 6.55706 34.6926 7.51711 36.1785L7.90032 36.7715L7.46964 37.3311C6.54921 38.5269 6 40.0106 6 41.6214C6 45.5294 9.19634 48.7126 13.1521 48.7126C13.2712 48.7126 13.3847 48.7045 13.5365 48.6936C13.5802 48.6905 13.627 48.6871 13.6781 48.6836L14.5093 48.6274L14.7148 49.4347C15.3686 52.0039 17.7058 53.9119 20.5039 53.9119C23.567 53.9119 26.0849 51.6265 26.4387 48.6886L26.4824 46.6862V22.9264C26.4824 19.661 23.8122 17 20.5039 17C18.2128 17 16.231 18.277 15.2286 20.1498Z" fill="white"/>
</svg>
