<svg id="mermaid-diagram-desktop" width="100%" xmlns="http://www.w3.org/2000/svg" class="flowchart" style="max-width: 666.7474365234375px;" viewBox="0 0 666.7474365234375 286.1775817871094" role="graphics-document document" aria-roledescription="flowchart-v2"><style>#mermaid-diagram-desktop{font-family:Arial,sans-serif;font-size:16px;fill:#333;}@keyframes edge-animation-frame{from{stroke-dashoffset:0;}}@keyframes dash{to{stroke-dashoffset:0;}}#mermaid-diagram-desktop .edge-animation-slow{stroke-dasharray:9,5!important;stroke-dashoffset:900;animation:dash 50s linear infinite;stroke-linecap:round;}#mermaid-diagram-desktop .edge-animation-fast{stroke-dasharray:9,5!important;stroke-dashoffset:900;animation:dash 20s linear infinite;stroke-linecap:round;}#mermaid-diagram-desktop .error-icon{fill:#552222;}#mermaid-diagram-desktop .error-text{fill:#552222;stroke:#552222;}#mermaid-diagram-desktop .edge-thickness-normal{stroke-width:1px;}#mermaid-diagram-desktop .edge-thickness-thick{stroke-width:3.5px;}#mermaid-diagram-desktop .edge-pattern-solid{stroke-dasharray:0;}#mermaid-diagram-desktop .edge-thickness-invisible{stroke-width:0;fill:none;}#mermaid-diagram-desktop .edge-pattern-dashed{stroke-dasharray:3;}#mermaid-diagram-desktop .edge-pattern-dotted{stroke-dasharray:2;}#mermaid-diagram-desktop .marker{fill:#333333;stroke:#333333;}#mermaid-diagram-desktop .marker.cross{stroke:#333333;}#mermaid-diagram-desktop svg{font-family:Arial,sans-serif;font-size:16px;}#mermaid-diagram-desktop p{margin:0;}#mermaid-diagram-desktop .label{font-family:Arial,sans-serif;color:#333;}#mermaid-diagram-desktop .cluster-label text{fill:#333;}#mermaid-diagram-desktop .cluster-label span{color:#333;}#mermaid-diagram-desktop .cluster-label span p{background-color:transparent;}#mermaid-diagram-desktop .label text,#mermaid-diagram-desktop span{fill:#333;color:#333;}#mermaid-diagram-desktop .node rect,#mermaid-diagram-desktop .node circle,#mermaid-diagram-desktop .node ellipse,#mermaid-diagram-desktop .node polygon,#mermaid-diagram-desktop .node path{fill:#ECECFF;stroke:#9370DB;stroke-width:1px;}#mermaid-diagram-desktop .rough-node .label text,#mermaid-diagram-desktop .node .label text,#mermaid-diagram-desktop .image-shape .label,#mermaid-diagram-desktop .icon-shape .label{text-anchor:middle;}#mermaid-diagram-desktop .node .katex path{fill:#000;stroke:#000;stroke-width:1px;}#mermaid-diagram-desktop .rough-node .label,#mermaid-diagram-desktop .node .label,#mermaid-diagram-desktop .image-shape .label,#mermaid-diagram-desktop .icon-shape .label{text-align:center;}#mermaid-diagram-desktop .node.clickable{cursor:pointer;}#mermaid-diagram-desktop .root .anchor path{fill:#333333!important;stroke-width:0;stroke:#333333;}#mermaid-diagram-desktop .arrowheadPath{fill:#333333;}#mermaid-diagram-desktop .edgePath .path{stroke:#333333;stroke-width:2.0px;}#mermaid-diagram-desktop .flowchart-link{stroke:#333333;fill:none;}#mermaid-diagram-desktop .edgeLabel{background-color:rgba(232,232,232, 0.8);text-align:center;}#mermaid-diagram-desktop .edgeLabel p{background-color:rgba(232,232,232, 0.8);}#mermaid-diagram-desktop .edgeLabel rect{opacity:0.5;background-color:rgba(232,232,232, 0.8);fill:rgba(232,232,232, 0.8);}#mermaid-diagram-desktop .labelBkg{background-color:rgba(232, 232, 232, 0.5);}#mermaid-diagram-desktop .cluster rect{fill:#ffffde;stroke:#aaaa33;stroke-width:1px;}#mermaid-diagram-desktop .cluster text{fill:#333;}#mermaid-diagram-desktop .cluster span{color:#333;}#mermaid-diagram-desktop div.mermaidTooltip{position:absolute;text-align:center;max-width:200px;padding:2px;font-family:Arial,sans-serif;font-size:12px;background:hsl(80, 100%, 96.2745098039%);border:1px solid #aaaa33;border-radius:2px;pointer-events:none;z-index:100;}#mermaid-diagram-desktop .flowchartTitleText{text-anchor:middle;font-size:18px;fill:#333;}#mermaid-diagram-desktop rect.text{fill:none;stroke-width:0;}#mermaid-diagram-desktop .icon-shape,#mermaid-diagram-desktop .image-shape{background-color:rgba(232,232,232, 0.8);text-align:center;}#mermaid-diagram-desktop .icon-shape p,#mermaid-diagram-desktop .image-shape p{background-color:rgba(232,232,232, 0.8);padding:2px;}#mermaid-diagram-desktop .icon-shape rect,#mermaid-diagram-desktop .image-shape rect{opacity:0.5;background-color:rgba(232,232,232, 0.8);fill:rgba(232,232,232, 0.8);}#mermaid-diagram-desktop .label-icon{display:inline-block;height:1em;overflow:visible;vertical-align:-0.125em;}#mermaid-diagram-desktop .node .label-icon path{fill:currentColor;stroke:revert;stroke-width:revert;}#mermaid-diagram-desktop :root{--mermaid-font-family:Arial,sans-serif;}</style><g><marker id="mermaid-diagram-desktop_flowchart-v2-pointEnd" class="marker flowchart-v2" viewBox="0 0 10 10" refX="5" refY="5" markerUnits="userSpaceOnUse" markerWidth="8" markerHeight="8" orient="auto"><path d="M 0 0 L 10 5 L 0 10 z" class="arrowMarkerPath" style="stroke-width: 1; stroke-dasharray: 1, 0;"/></marker><marker id="mermaid-diagram-desktop_flowchart-v2-pointStart" class="marker flowchart-v2" viewBox="0 0 10 10" refX="4.5" refY="5" markerUnits="userSpaceOnUse" markerWidth="8" markerHeight="8" orient="auto"><path d="M 0 5 L 10 10 L 10 0 z" class="arrowMarkerPath" style="stroke-width: 1; stroke-dasharray: 1, 0;"/></marker><marker id="mermaid-diagram-desktop_flowchart-v2-circleEnd" class="marker flowchart-v2" viewBox="0 0 10 10" refX="11" refY="5" markerUnits="userSpaceOnUse" markerWidth="11" markerHeight="11" orient="auto"><circle cx="5" cy="5" r="5" class="arrowMarkerPath" style="stroke-width: 1; stroke-dasharray: 1, 0;"/></marker><marker id="mermaid-diagram-desktop_flowchart-v2-circleStart" class="marker flowchart-v2" viewBox="0 0 10 10" refX="-1" refY="5" markerUnits="userSpaceOnUse" markerWidth="11" markerHeight="11" orient="auto"><circle cx="5" cy="5" r="5" class="arrowMarkerPath" style="stroke-width: 1; stroke-dasharray: 1, 0;"/></marker><marker id="mermaid-diagram-desktop_flowchart-v2-crossEnd" class="marker cross flowchart-v2" viewBox="0 0 11 11" refX="12" refY="5.2" markerUnits="userSpaceOnUse" markerWidth="11" markerHeight="11" orient="auto"><path d="M 1,1 l 9,9 M 10,1 l -9,9" class="arrowMarkerPath" style="stroke-width: 2; stroke-dasharray: 1, 0;"/></marker><marker id="mermaid-diagram-desktop_flowchart-v2-crossStart" class="marker cross flowchart-v2" viewBox="0 0 11 11" refX="-1" refY="5.2" markerUnits="userSpaceOnUse" markerWidth="11" markerHeight="11" orient="auto"><path d="M 1,1 l 9,9 M 10,1 l -9,9" class="arrowMarkerPath" style="stroke-width: 2; stroke-dasharray: 1, 0;"/></marker><g class="root"><g class="clusters"/><g class="edgePaths"><path d="M91.43,55L91.346,60.333C91.263,65.667,91.096,76.333,91.013,85.167C90.93,94,90.93,101,90.93,104.5L90.93,108" id="L_RSS_Ingest_0" class=" edge-thickness-normal edge-pattern-solid edge-thickness-normal edge-pattern-solid flowchart-link" style="" marker-end="url(#mermaid-diagram-desktop_flowchart-v2-pointEnd)"/><path d="M90.93,166L90.93,170.167C90.93,174.333,90.93,182.667,121.081,194.783C151.232,206.9,211.533,222.799,241.684,230.749L271.835,238.699" id="L_Ingest_Redis_0" class=" edge-thickness-normal edge-pattern-solid edge-thickness-normal edge-pattern-solid flowchart-link" style="" marker-end="url(#mermaid-diagram-desktop_flowchart-v2-pointEnd)"/><path d="M303.656,166L303.656,170.167C303.656,174.333,303.656,182.667,303.656,190.333C303.656,198,303.656,205,303.656,208.5L303.656,212" id="L_Search_Redis_0" class=" edge-thickness-normal edge-pattern-solid edge-thickness-normal edge-pattern-solid flowchart-link" style="" marker-end="url(#mermaid-diagram-desktop_flowchart-v2-pointEnd)"/><path d="M258.429,62L249.906,66.167C241.384,70.333,224.338,78.667,222.95,86.683C221.562,94.7,235.832,102.4,242.967,106.25L250.101,110.1" id="L_Chat_Search_0" class=" edge-thickness-normal edge-pattern-solid edge-thickness-normal edge-pattern-solid flowchart-link" style="" marker-end="url(#mermaid-diagram-desktop_flowchart-v2-pointEnd)"/><path d="M371.68,59.89L382.213,64.408C392.746,68.927,413.812,77.963,435.411,87.697C457.01,97.432,479.142,107.863,490.208,113.079L501.274,118.295" id="L_Chat_AMS_0" class=" edge-thickness-normal edge-pattern-solid edge-thickness-normal edge-pattern-solid flowchart-link" style="" marker-end="url(#mermaid-diagram-desktop_flowchart-v2-pointEnd)"/><path d="M473.158,62L463.445,66.167C453.731,70.333,434.305,78.667,416.283,86.718C398.262,94.769,381.646,102.537,373.338,106.422L365.03,110.306" id="L_Brief_Search_0" class=" edge-thickness-normal edge-pattern-solid edge-thickness-normal edge-pattern-solid flowchart-link" style="" marker-end="url(#mermaid-diagram-desktop_flowchart-v2-pointEnd)"/><path d="M546.485,62L548.087,66.167C549.69,70.333,552.895,78.667,553.654,87.677C554.412,96.686,552.725,106.373,551.881,111.216L551.037,116.059" id="L_Brief_AMS_0" class=" edge-thickness-normal edge-pattern-solid edge-thickness-normal edge-pattern-solid flowchart-link" style="" marker-end="url(#mermaid-diagram-desktop_flowchart-v2-pointEnd)"/><path d="M546.6,159L546.517,164.333C546.434,169.667,546.267,180.333,511.085,193.787C475.902,207.24,405.704,223.48,370.605,231.6L335.506,239.72" id="L_AMS_Redis_0" class=" edge-thickness-normal edge-pattern-solid edge-thickness-normal edge-pattern-solid flowchart-link" style="" marker-end="url(#mermaid-diagram-desktop_flowchart-v2-pointEnd)"/></g><g class="edgeLabels"><g class="edgeLabel"><g class="label" transform="translate(0, 0)"><foreignObject width="0" height="0"><div xmlns="http://www.w3.org/1999/xhtml" class="labelBkg" style="display: table-cell; white-space: nowrap; line-height: 1.5; max-width: 200px; text-align: center;"><span class="edgeLabel "></span></div></foreignObject></g></g><g class="edgeLabel"><g class="label" transform="translate(0, 0)"><foreignObject width="0" height="0"><div xmlns="http://www.w3.org/1999/xhtml" class="labelBkg" style="display: table-cell; white-space: nowrap; line-height: 1.5; max-width: 200px; text-align: center;"><span class="edgeLabel "></span></div></foreignObject></g></g><g class="edgeLabel"><g class="label" transform="translate(0, 0)"><foreignObject width="0" height="0"><div xmlns="http://www.w3.org/1999/xhtml" class="labelBkg" style="display: table-cell; white-space: nowrap; line-height: 1.5; max-width: 200px; text-align: center;"><span class="edgeLabel "></span></div></foreignObject></g></g><g class="edgeLabel"><g class="label" transform="translate(0, 0)"><foreignObject width="0" height="0"><div xmlns="http://www.w3.org/1999/xhtml" class="labelBkg" style="display: table-cell; white-space: nowrap; line-height: 1.5; max-width: 200px; text-align: center;"><span class="edgeLabel "></span></div></foreignObject></g></g><g class="edgeLabel"><g class="label" transform="translate(0, 0)"><foreignObject width="0" height="0"><div xmlns="http://www.w3.org/1999/xhtml" class="labelBkg" style="display: table-cell; white-space: nowrap; line-height: 1.5; max-width: 200px; text-align: center;"><span class="edgeLabel "></span></div></foreignObject></g></g><g class="edgeLabel"><g class="label" transform="translate(0, 0)"><foreignObject width="0" height="0"><div xmlns="http://www.w3.org/1999/xhtml" class="labelBkg" style="display: table-cell; white-space: nowrap; line-height: 1.5; max-width: 200px; text-align: center;"><span class="edgeLabel "></span></div></foreignObject></g></g><g class="edgeLabel"><g class="label" transform="translate(0, 0)"><foreignObject width="0" height="0"><div xmlns="http://www.w3.org/1999/xhtml" class="labelBkg" style="display: table-cell; white-space: nowrap; line-height: 1.5; max-width: 200px; text-align: center;"><span class="edgeLabel "></span></div></foreignObject></g></g><g class="edgeLabel"><g class="label" transform="translate(0, 0)"><foreignObject width="0" height="0"><div xmlns="http://www.w3.org/1999/xhtml" class="labelBkg" style="display: table-cell; white-space: nowrap; line-height: 1.5; max-width: 200px; text-align: center;"><span class="edgeLabel "></span></div></foreignObject></g></g></g><g class="nodes"><g class="node default  " id="flowchart-RSS-0" transform="translate(90.9296875, 35)"><g class="basic label-container" transform="translate(4.875,0)"><path d="M-58.15625 -19.5 C-55.755898604343926 -14.699297208687847, -53.355547208687845 -9.898594417375694, -48.40625 0 C-52.23261303778283 7.652726075565672, -56.058976075565674 15.305452151131345, -58.15625 19.5 C-21.057193288216176 19.5, 16.041863423567648 19.5, 48.40625 19.5 C48.40625 7.23640036607595, 48.40625 -5.027199267848101, 48.40625 -19.5 C12.60980033754651 -19.5, -23.18664932490698 -19.5, -58.15625 -19.5" stroke="none" stroke-width="0" fill="#ECECFF" style=""/><path d="M-58.15625 -19.5 C-55.076725087208 -13.340950174415998, -51.997200174415994 -7.181900348831995, -48.40625 0 M-58.15625 -19.5 C-54.89391088163991 -12.975321763279815, -51.631571763279815 -6.450643526559631, -48.40625 0 M-48.40625 0 C-51.90279080645925 6.993081612918504, -55.3993316129185 13.986163225837007, -58.15625 19.5 M-48.40625 0 C-52.263356299884876 7.714212599769752, -56.12046259976975 15.428425199539504, -58.15625 19.5 M-58.15625 19.5 C-24.919360175138607 19.5, 8.317529649722786 19.5, 48.40625 19.5 M-58.15625 19.5 C-25.656457989829903 19.5, 6.843334020340194 19.5, 48.40625 19.5 M48.40625 19.5 C48.40625 6.902530507694049, 48.40625 -5.694938984611902, 48.40625 -19.5 M48.40625 19.5 C48.40625 9.29170416323925, 48.40625 -0.9165916735214985, 48.40625 -19.5 M48.40625 -19.5 C14.616930882699627 -19.5, -19.172388234600746 -19.5, -58.15625 -19.5 M48.40625 -19.5 C15.929923946855226 -19.5, -16.54640210628955 -19.5, -58.15625 -19.5" stroke="#9370DB" stroke-width="1.3" fill="none" stroke-dasharray="0 0" style=""/></g><g class="label" style="" transform="translate(-36.03125, -12)"><rect/><foreignObject width="81.8125" height="24"><div xmlns="http://www.w3.org/1999/xhtml" style="display: table-cell; white-space: nowrap; line-height: 1.5; max-width: 200px; text-align: center;"><span class="nodeLabel "><p>RSS Feeds</p></span></div></foreignObject></g></g><g class="node default  " id="flowchart-Ingest-1" transform="translate(90.9296875, 139)"><rect class="basic label-container" style="" x="-82.9296875" y="-27" width="165.859375" height="54"/><g class="label" style="" transform="translate(-52.9296875, -12)"><rect/><foreignObject width="105.859375" height="24"><div xmlns="http://www.w3.org/1999/xhtml" style="display: table-cell; white-space: nowrap; line-height: 1.5; max-width: 200px; text-align: center;"><span class="nodeLabel "><p>Feed Ingestion</p></span></div></foreignObject></g></g><g class="node default  " id="flowchart-Search-2" transform="translate(303.65625, 139)"><rect class="basic label-container" style="" x="-79.796875" y="-27" width="159.59375" height="54"/><g class="label" style="" transform="translate(-49.796875, -12)"><rect/><foreignObject width="99.59375" height="24"><div xmlns="http://www.w3.org/1999/xhtml" style="display: table-cell; white-space: nowrap; line-height: 1.5; max-width: 200px; text-align: center;"><span class="nodeLabel "><p>Article Search</p></span></div></foreignObject></g></g><g class="node default  " id="flowchart-Chat-3" transform="translate(313.65625, 35)"><rect class="basic label-container" style="" x="-58.0234375" y="-27" width="116.046875" height="54"/><g class="label" style="" transform="translate(-28.0234375, -12)"><rect/><foreignObject width="56.046875" height="24"><div xmlns="http://www.w3.org/1999/xhtml" style="display: table-cell; white-space: nowrap; line-height: 1.5; max-width: 200px; text-align: center;"><span class="nodeLabel "><p>Chatbot</p></span></div></foreignObject></g></g><g class="node default  " id="flowchart-Brief-4" transform="translate(536.1002578735352, 35)"><rect class="basic label-container" style="" x="-84.6953125" y="-27" width="169.390625" height="54"/><g class="label" style="" transform="translate(-54.6953125, -12)"><rect/><foreignObject width="109.390625" height="24"><div xmlns="http://www.w3.org/1999/xhtml" style="display: table-cell; white-space: nowrap; line-height: 1.5; max-width: 200px; text-align: center;"><span class="nodeLabel "><p>Brief Generator</p></span></div></foreignObject></g></g><g class="node default  " id="flowchart-Redis-5" transform="translate(303.65625, 247.08879280090332)"><path d="M0,7.725859388495422 a27.953125,7.725859388495422 0,0,0 55.90625,0 a27.953125,7.725859388495422 0,0,0 -55.90625,0 l0,46.72585938849542 a27.953125,7.725859388495422 0,0,0 55.90625,0 l0,-46.72585938849542" class="basic label-container" style="" label-offset-y="7.725859388495422" transform="translate(-27.953125, -31.088789082743133)"/><g class="label" style="" transform="translate(-20.453125, -2)"><rect/><foreignObject width="40.90625" height="24"><div xmlns="http://www.w3.org/1999/xhtml" style="display: table-cell; white-space: nowrap; line-height: 1.5; max-width: 200px; text-align: center;"><span class="nodeLabel "><p>Redis</p></span></div></foreignObject></g></g><g class="node default  " id="flowchart-AMS-6" transform="translate(546.1002578735352, 139)"><g class="basic label-container"><path d="M-102.89713541666667 -19.5 C-82.26269538558495 -19.5, -61.628255354503224 -19.5, 0 -19.5 C30.37214028143257 -19.5, 60.74428056286514 -19.5, 102.89713541666667 -19.5 C106.6219569446708 -12.050356943991732, 110.34677847267494 -4.6007138879834635, 112.64713541666667 0 C110.69013994998453 3.913990933364296, 108.73314448330237 7.827981866728592, 102.89713541666667 19.5 C65.54200405748091 19.5, 28.18687269829516 19.5, 0 19.5 C-28.602121310902653 19.5, -57.20424262180531 19.5, -102.89713541666667 19.5 C-105.84915575953458 13.595959314264178, -108.8011761024025 7.691918628528358, -112.64713541666667 0 C-110.66250261415871 -3.9692656050159316, -108.67786981165074 -7.938531210031863, -102.89713541666667 -19.5" stroke="none" stroke-width="0" fill="#ECECFF" style=""/><path d="M-102.89713541666667 -19.5 C-66.10498998120113 -19.5, -29.312844545735572 -19.5, 0 -19.5 M-102.89713541666667 -19.5 C-80.72318184151301 -19.5, -58.54922826635936 -19.5, 0 -19.5 M0 -19.5 C21.836037294788095 -19.5, 43.67207458957619 -19.5, 102.89713541666667 -19.5 M0 -19.5 C37.47895520849821 -19.5, 74.95791041699643 -19.5, 102.89713541666667 -19.5 M102.89713541666667 -19.5 C106.6616609425189 -11.97094894829554, 110.42618646837113 -4.44189789659108, 112.64713541666667 0 M102.89713541666667 -19.5 C105.96532269206804 -13.363625449197244, 109.03350996746943 -7.227250898394487, 112.64713541666667 0 M112.64713541666667 0 C109.57831149552507 6.137647842283212, 106.50948757438346 12.275295684566425, 102.89713541666667 19.5 M112.64713541666667 0 C110.62559217782155 4.043086477690263, 108.6040489389764 8.086172955380526, 102.89713541666667 19.5 M102.89713541666667 19.5 C70.72429876802738 19.5, 38.55146211938809 19.5, 0 19.5 M102.89713541666667 19.5 C61.83445130788684 19.5, 20.771767199107003 19.5, 0 19.5 M0 19.5 C-21.94826331683937 19.5, -43.89652663367874 19.5, -102.89713541666667 19.5 M0 19.5 C-30.514167105743308 19.5, -61.028334211486616 19.5, -102.89713541666667 19.5 M-102.89713541666667 19.5 C-105.01725371283872 15.259763407655903, -107.13737200901078 11.019526815311805, -112.64713541666667 0 M-102.89713541666667 19.5 C-105.48935172729922 14.315567378734883, -108.08156803793179 9.131134757469768, -112.64713541666667 0 M-112.64713541666667 0 C-110.16233533959473 -4.969600154143882, -107.6775352625228 -9.939200308287765, -102.89713541666667 -19.5 M-112.64713541666667 0 C-109.88122951665443 -5.531811800024489, -107.11532361664219 -11.063623600048977, -102.89713541666667 -19.5" stroke="#9370DB" stroke-width="1.3" fill="none" stroke-dasharray="0 0" style=""/></g><g class="label" style="" transform="translate(-77.8046875, -12)"><rect/><foreignObject width="155.609375" height="24"><div xmlns="http://www.w3.org/1999/xhtml" style="display: table-cell; white-space: nowrap; line-height: 1.5; max-width: 200px; text-align: center;"><span class="nodeLabel "><p>Agent Memory Server</p></span></div></foreignObject></g></g></g></g></g></svg>